<?xml version="1.0" encoding="UTF-8"?>
<svg version="1.1" viewBox="0 0 341 96" xmlns="http://www.w3.org/2000/svg" xmlns:xlink="http://www.w3.org/1999/xlink">
<defs>
<rect id="a" y="3.5" width="327" height="81.5" rx="40.75"/>
<mask id="c" x="0" y="0" width="327" height="81.5" fill="white">
<use xlink:href="#a"/>
</mask>
<mask id="b" x="-7" y="-7" width="341" height="95.5">
<rect x="-7" y="-3.5" width="341" height="95.5" fill="#fff"/>
<use fill="black" xlink:href="#a"/>
</mask>
</defs>
<g fill="none" fill-rule="evenodd">
<g transform="translate(7 4)">
<g stroke-width="14">
<use fill="#282028" fill-rule="evenodd" mask="url(#c)" stroke="#DE4D5F" xlink:href="#a"/>
<use mask="url(#b)" stroke="#282028" xlink:href="#a"/>
</g>
<g transform="translate(42 .068284)">
<path d="m140.38 37.45h47.116v13.75h-34.726l-0.094111 0.11029h-16.344l-1.8503 6.1571h31.558c-0.06853 0.13683-0.20559 0.42757-0.41118 0.87226-0.20559 0.44468-0.42831 0.90646-0.66817 1.3853l-0.66817 1.334c-0.20559 0.41048-0.34265 0.64992-0.41118 0.71833-0.47971 0.82095-1.1479 1.7787-2.0045 2.8733-0.85663 1.0946-1.6961 2.1379-2.5185 3.1299-0.82236 0.99198-1.5419 1.83-2.1587 2.5142s-0.95942 1.0262-1.0279 1.0262h-41.426l15.933-54.388h46.874c-0.009506 0.022142-0.01914 0.044439-0.028902 0.066892h13.473v13.75h-23.11c-0.07361 0.024399-0.14111 0.036598-0.2025 0.036598h-25.39l-1.9132 6.6634zm-101.24 13.561l-18.291-0.11117c-1.6447 0-3.1352-0.49598-4.4716-1.488s-2.4671-2.2576-3.3922-3.7969c-0.92516-1.5393-1.6447-3.2325-2.1587-5.0796-0.51398-1.8471-0.77096-3.66-0.77096-5.4388 0-1.6419 0.37691-3.5061 1.1307-5.5927 0.75383-2.0866 1.7475-4.0705 2.981-5.9519s2.6041-3.4548 4.1118-4.7204c1.5077-1.2656 3.0496-1.8984 4.6258-1.8984h41.94l-4.647 13.768-31.766 0.35631-2.8554 6.77 18.299-0.26795c1.7133 0 3.2038 0.53019 4.4716 1.5906 1.2678 1.0604 2.3129 2.3944 3.1352 4.0021 0.82236 1.6077 1.422 3.3351 1.7989 5.1822 0.37692 1.8471 0.56537 3.5574 0.56537 5.1309v0.61571c0 1.7787-0.32551 3.6772-0.97655 5.6953-0.65104 2.0182-1.5248 3.8824-2.6213 5.5927-1.0965 1.7103-2.33 3.1299-3.7006 4.2587-1.3706 1.1288-2.8097 1.6932-4.3174 1.6932h-41.94l8.532-13.751h27.96l2.3573-6.559zm18.172 20.31h15.83l8.8404-30.58 4.6258 30.58h19.942l15.83-54.388h-15.625l-8.9431 30.58-4.7286-30.58h-19.839l-15.933 54.388z" fill="#DE4D5F"/>
<path d="m173.35 88.25l19.163-21.127 6.9988 21.127h28.328l-14.331-44.25 35.278-38.739c2.6041-2.8596 1.5796-5.1778-2.2779-5.1778h-21.669l-18.83 20.794-6.6655-20.794h-28.495l14.164 43.917-40.16 44.25h28.495z" fill="#fff" stroke="#282028" stroke-width="6.5"/>
</g>
</g>
</g>
</svg>
